<svg width="350" height="350" xmlns="http://www.w3.org/2000/svg">

 <g>
  <title>background</title>
  <rect fill="#df111f" id="canvas_background" height="352" width="352" y="-1" x="-1"/>
 </g>
 <g>
  <title>Layer 1</title>
  <g id="svg_1">
   <rect id="svg_2" height="247.14707" width="346.30247" fill="#DF111F" y="49.5624" x="1.80519"/>
   <g id="svg_3">
    <g id="svg_4">
     <polyline id="svg_5" points="239.10262823104858,265.1339416503906 313.11817693710327,265.1339416503906 313.11817693710327,233.99342346191406 278.28696966171265,233.99342346191406 278.3001227378845,83.33257293701172 239.07626104354858,83.32928466796875 " fill="#FFFFFF"/>
     <path id="svg_6" d="m138.55991,116.43052c1.26869,4.70567 1.60809,8.58094 1.60809,12.65063c0,24.32587 -14.51247,40.86494 -25.6308,41.34605c11.11833,0 26.1185,14.09068 26.1185,34.52812c0,0.49429 0,40.39368 0,40.39368c0.47784,6.79492 1.45322,11.18756 8.21849,19.94644l-38.21225,0c-4.35309,-3.42383 -7.73735,-9.73761 -7.73735,-18.01538c0,-8.258 0,-48.14095 0,-48.14095c0,-12.66711 -10.65369,-18.49651 -23.70305,-16.55228l0,82.7119l-40.63099,0l0,-181.94309l60.94317,0c16.9576,0.27351 27.23233,8.66003 33.39122,19.58064l-0.00658,-19.58064l102.5199,0l0,33.08146l-30.46829,0l0,148.85834l-40.13341,0l-0.06589,-148.86492m-85.05815,22.37833l0,17.03009c15.47472,0.48111 23.21535,-6.00404 23.21535,-22.38164c0,-16.05798 -8.22174,-20.91525 -23.21535,-20.91525l0,43.29689" fill="#FFFFFF"/>
    </g>
   </g>
  </g>
 </g>
</svg>
